<svg width="15" height="19" viewBox="0 0 15 19" fill="none" xmlns="http://www.w3.org/2000/svg">
<path d="M14.22 10.0199L0.971251 18.8524C0.877134 18.9151 0.767783 18.9509 0.654866 18.9564C0.541933 18.9618 0.429667 18.9364 0.33 18.8831C0.230333 18.8298 0.147 18.7503 0.0888999 18.6534C0.0307833 18.5564 6.66667e-05 18.4454 0 18.3324V0.667405C6.66667e-05 0.554355 0.0307833 0.443438 0.0888999 0.346455C0.147 0.249488 0.230333 0.170088 0.33 0.116722C0.429667 0.0633716 0.541933 0.0380381 0.654866 0.0434381C0.767783 0.0488381 0.877134 0.0847719 0.971251 0.147405L14.22 8.97992C14.3057 9.03692 14.3758 9.11426 14.4243 9.20509C14.4728 9.29576 14.4983 9.39709 14.4983 9.49992C14.4983 9.60276 14.4728 9.70409 14.4243 9.79475C14.3758 9.88542 14.3057 9.96276 14.22 10.0199Z" fill="#061237"/>
</svg>
